<svg width="96" height="96" xmlns="http://www.w3.org/2000/svg" xmlns:xlink="http://www.w3.org/1999/xlink" overflow="hidden"><defs><clipPath id="clip0"><rect x="592" y="312" width="96" height="96"/></clipPath></defs><g clip-path="url(#clip0)" transform="translate(-592 -312)"><path d="M637.725 329.755C637.05 329.702 636.459 330.206 636.406 330.881 636.383 331.176 636.467 331.47 636.644 331.708L637.865 333.368C638.071 333.647 638.013 334.04 637.734 334.246 637.639 334.317 637.526 334.359 637.408 334.368 618.639 336.156 603.008 352.675 603.008 367.232 603.005 384.847 619.675 390 640.238 390 660.801 390 677.472 384.847 677.472 367.229 677.472 348.821 654.83 331.427 637.725 329.755ZM633.419 344.414 625.419 352.414C624.652 353.208 623.385 353.23 622.591 352.463 621.797 351.696 621.774 350.43 622.542 349.635 622.558 349.618 622.574 349.602 622.591 349.586L630.591 341.586C631.385 340.819 632.652 340.841 633.419 341.635 634.168 342.41 634.168 343.639 633.419 344.414ZM642.005 356C642.005 357.105 641.11 358 640.005 358 638.9 358 638.005 357.105 638.005 356L638.005 347C638.005 345.895 638.9 345 640.005 345 641.11 345 642.005 345.895 642.005 347ZM657.419 352.414C656.638 353.195 655.372 353.195 654.591 352.414L646.591 344.414C645.797 343.647 645.774 342.38 646.542 341.586 647.309 340.792 648.575 340.77 649.37 341.537 649.386 341.553 649.403 341.569 649.419 341.586L657.419 349.586C658.2 350.367 658.2 351.633 657.419 352.414Z" fill="#FFFFFF"/></g></svg>